<svg id="trade-in" xmlns="http://www.w3.org/2000/svg" xmlns:xlink="http://www.w3.org/1999/xlink" viewBox="0 0 512 512">
  <defs>
    <clipPath id="clip-path">
      <rect x="10" y="10" width="492" height="492" fill="none"/>
    </clipPath>
  </defs>
  <title>trade-in</title>
  <g clip-path="url(#clip-path)">
    <path d="M785,221l-42-19-37-59a58,58,0,0,0-50-27H500a59,59,0,0,0-47,23l-48,62-79,22a47,47,0,0,0-34,45v30c0,26,20,47,46,47h7a59,59,0,0,0,115,0H639a59,59,0,0,0,115,0h13c26,0,46-21,46-47V264A46,46,0,0,0,785,221ZM402,368a38,38,0,1,1,38-38A38,38,0,0,1,402,368Zm294,0a38,38,0,1,1,38-38A38,38,0,0,1,696,368Zm70-44H755a59,59,0,0,0-118,0H461a59,59,0,0,0-118,0h-5c-14,0-25-12-25-26V268a25,25,0,0,1,18-24l83-23,6-4,50-65a38,38,0,0,1,30-14H657a37,37,0,0,1,32,17l39,62,5,4,45,20a25,25,0,0,1,15,23v35h0C791,312,780,324,766,324Z" fill="#bb0f21"/>
    <path d="M193,221l-42-19-37-59a58,58,0,0,0-50-27H-93a59,59,0,0,0-47,23l-48,62-79,22a47,47,0,0,0-34,45v30c0,26,20,47,46,47h7a59,59,0,0,0,72,42,59,59,0,0,0,42-42H46a59,59,0,0,0,115,0h13c26,0,46-21,46-47V264A46,46,0,0,0,193,221ZM-190,368a38,38,0,0,1-38-38,38,38,0,0,1,38-38,38,38,0,0,1,38,38A38,38,0,0,1-190,368Zm294,0a38,38,0,1,1,38-38A38,38,0,0,1,103,368Zm70-44H162a59,59,0,0,0-118,0H-131a59,59,0,0,0-65-52,59,59,0,0,0-52,52h-5c-14,0-25-12-25-26V268a25,25,0,0,1,18-24l83-23,6-4,50-65a38,38,0,0,1,30-14H64a37,37,0,0,1,32,17l39,62,5,4,45,20a25,25,0,0,1,15,23v35h0C198,312,188,324,174,324Z" fill="#bb0f21"/>
    <g>
      <path d="M381,399a11,11,0,0,0-16,1,143,143,0,0,1-200,19h4a11,11,0,1,0,0-22H139a11,11,0,0,0-12,10h0v31a11,11,0,0,0,11,11h0a11,11,0,0,0,11-11v-4a165,165,0,0,0,78,37l28,2a166,166,0,0,0,127-59A11,11,0,0,0,381,399Z" fill="#bb0f21"/>
      <path d="M131,113a11,11,0,0,0,16-1A143,143,0,0,1,347,93h-4a11,11,0,1,0,0,22h30a11,11,0,0,0,12-10h0V73a11,11,0,0,0-11-11h0a11,11,0,0,0-11,11v4a165,165,0,0,0-78-37l-28-2A166,166,0,0,0,129,97,11,11,0,0,0,131,113Z" fill="#bb0f21"/>
    </g>
  </g>
</svg>
