<svg width="374" height="32" viewBox="0 0 374 32" fill="none" xmlns="http://www.w3.org/2000/svg">
<path d="M10.0588 24.5333L0 32H60.8823C60.8823 32 66 31.6444 66 26.6667V17.9556C66 17.9556 66 12.2667 59.6471 12.2667C54 12.2667 21.7059 12.2667 21.7059 12.2667V7.46667H65.8235C65.8235 7.46667 66 7.46667 66 7.28889V0.355556C66 0.355556 66 0 65.6471 0H15.5294C15.5294 0 9.35294 0 9.35294 6.57778V14.2222C9.35294 14.2222 9.52941 19.5556 14.8235 19.5556H53.6471V24.5333H10.0588Z" fill="black"/>
<path d="M363.87 7.50838L374 0H313.753C313.753 0 308.066 0 308.066 5.72067V13.9441C308.066 13.9441 308.066 19.6648 314.464 19.6648C320.151 19.6648 352.674 19.6648 352.674 19.6648V24.4916H307.178C307.178 24.4916 307 24.4916 307 24.6704V31.6425C307 31.6425 307 32 307.355 32H359.072C359.072 32 365.292 32 365.292 25.3855V17.6983C365.292 17.6983 365.292 12.3352 359.249 12.3352H320.684V7.50838H363.87Z" fill="black"/>
<path d="M84.6667 24.7111H128.648C128.648 24.7111 129 24.7111 129 24.8889V31.6444C129 31.6444 129 32 128.648 32H72.5278C72.5278 32 72 32 72 31.4667C72 30.9333 72 0 72 0H126.361C126.361 0 126.713 0 126.713 0.355556V6.93333C126.713 6.93333 126.713 7.46667 126.361 7.46667H84.4907V12.2667H118.093C118.093 12.2667 118.444 12.2667 118.444 12.6222V19.2C118.444 19.2 118.444 19.7333 118.093 19.7333H84.4907L84.6667 24.7111Z" fill="black"/>
<path d="M134.177 0.355556C134.177 0.355556 134.177 0 134.531 0H146.573C146.573 0 146.927 0 146.927 0.355556V24.5333H184.646C184.646 24.5333 185 24.5333 185 24.8889V31.6444C185 31.6444 185 32 184.646 32H134.531C134.531 32 134 32 134 31.4667V0.355556H134.177Z" fill="black"/>
<path d="M180 0.355556C180 0.355556 180 0 180.356 0H239.644C239.644 0 240 0 240 0.355556V7.11111C240 7.11111 240 7.46667 239.644 7.46667H216.677V31.6444C216.677 31.6444 216.677 32 216.32 32H202.789C202.789 32 202.255 32 202.255 31.4667V7.46667H180.356C180.356 7.46667 180 7.46667 180 7.11111C180 6.75556 180 0.355556 180 0.355556Z" fill="black"/>
<path d="M289.509 24.5333H257.667V7.28889H289.509V24.5333ZM296.019 0H251.685C245 0 245 6.04444 245 6.04444C245 6.04444 245 20.8 245 26.1333C245 32 250.806 32 250.806 32H296.019C302 32 302 26.4889 302 26.4889V5.86667C301.824 0.177778 296.019 0 296.019 0Z" fill="black"/>
</svg>
